{"title":"Night Skies 2007 DVDRip AC3 XviD-P2P","uid":7031646,"size":1567579935,"categoryP":"video","categoryS":"movies","magnet":"?xt=urn:btih:5353e1964b9a7d8b89e27a518611385c4c8b80b1&amp;dn=Night+Skies+2007+DVDRip+AC3+XviD-P2P&amp;tr=udp%3A%2F%2Ftracker.openbittorrent.com%3A80&amp;tr=udp%3A%2F%2Fopen.demonii.com%3A1337&amp;tr=udp%3A%2F%2Ftracker.coppersurfer.tk%3A6969&amp;tr=udp%3A%2F%2Fexodus.desync.com%3A6969","seeders":0,"leechers":1,"uploader":".BONE.","files":3,"time":1329237183,"description":"On March 13th, 1997 one of the largest UFO sightings ever recorded took\nplace across the southwestern United States. The event became known as\nthe 'Phoenix Lights' and was witnessed by community leaders, members of\nlaw enforcement, as well as thousands of everyday citizens. This true story,\nbased on transcripts from actual hypnosis-therapy sessions, finally reveals\nwhat happened after the infamous incident ended and how six people, stranded\nby chance on a forgotten road, encountered more than just lights in the sky.\n\nGeneral\nComplete name : Night Skies 2007 DVDRip AC3 XviD.avi\nFormat : AVI\nFormat/Info : Audio Video Interleave\nFile size : 1.46 GiB\nDuration : 1h 24mn\nOverall bit rate : 2 477 Kbps\nWriting application : VirtualDubMod 1.5.4.1 (build 2178/release)\nWriting library : VirtualDubMod build 2178/release\n\nVideo\nID : 0\nFormat : MPEG-4 Visual\nFormat profile : Simple@L3\nFormat settings, BVOP : No\nFormat settings, QPel : No\nFormat settings, GMC : No warppoints\nFormat settings, Matrix : Default (H.263)\nCodec ID : XVID\nCodec ID/Hint : XviD\nDuration : 1h 24mn\nBit rate : 2 020 Kbps\nWidth : 720 pixels\nHeight : 400 pixels\nDisplay aspect ratio : 16:9\nFrame rate : 23.976 fps\nResolution : 8 bits\nColorimetry : 4:2:0\nScan type : Progressive\nBits/(Pixel*Frame) : 0.293\nStream size : 1.19 GiB (82%)\nWriting library : XviD 1.1.2 (UTC 2006-11-01)\n\nAudio\nID : 1\nFormat : AC-3\nFormat/Info : Audio Coding 3\nCodec ID : 2000\nDuration : 1h 24mn\nBit rate mode : Constant\nBit rate : 448 Kbps\nChannel(s) : 6 channels\nChannel positions : Front: L C R, Surround: L R, LFE\nSampling rate : 48.0 KHz\nStream size : 270 MiB (18%)\nAlignment : Split accross interleaves\nInterleave, duration : 42 ms (1.00 video frame)\nInterleave, preload duration : 500 ms &lt;a href=&quot;\nhttp://www.imdb.com/title/tt0460883/&quot; rel=&quot;nofollow&quot; target=&quot;_NEW&quot;&gt;\nhttp://www.imdb.com/title/tt0460883/&lt;/a&gt;\n\n &lt;a href=&quot;\nhttp://www.aedes.us/e/XH3h4.png&quot; rel=&quot;nofollow&quot; target=&quot;_NEW&quot;&gt;\nhttp://www.aedes.us/e/XH3h4.png&lt;/a&gt; &lt;a href=&quot;\nhttp://www.aedes.us/e/eqXl3.png&quot; rel=&quot;nofollow&quot; target=&quot;_NEW&quot;&gt;\nhttp://www.aedes.us/e/eqXl3.png&lt;/a&gt; &lt;a href=&quot;\nhttp://www.aedes.us/e/lWgih.png&quot; rel=&quot;nofollow&quot; target=&quot;_NEW&quot;&gt;\nhttp://www.aedes.us/e/lWgih.png&lt;/a&gt;","torrent":{"xt":"urn:btih:5353e1964b9a7d8b89e27a518611385c4c8b80b1","amp;dn":"Night+Skies+2007+DVDRip+AC3+XviD-P2P","amp;tr":["udp%3A%2F%2Ftracker.openbittorrent.com%3A80","udp%3A%2F%2Fopen.demonii.com%3A1337","udp%3A%2F%2Ftracker.coppersurfer.tk%3A6969","udp%3A%2F%2Fexodus.desync.com%3A6969"],"infoHash":"5353e1964b9a7d8b89e27a518611385c4c8b80b1","infoHashBuffer":{"type":"Buffer","data":[83,83,225,150,75,154,125,139,137,226,122,81,134,17,56,92,76,139,128,177]},"announce":[],"urlList":[]}}